<mxfile host="app.diagrams.net" agent="Mozilla/5.0 (Windows NT 10.0; Win64; x64) AppleWebKit/537.36 (KHTML, like Gecko) Chrome/128.0.0.0 Safari/537.36 OPR/114.0.0.0 (Edition Yx GX)" border="50" scale="3" compressed="false" locked="false" version="25.0.3">
  <diagram name="Blank" id="YmL12bMKpDGza6XwsDPr">
    <mxGraphModel dx="3393" dy="1563" grid="0" gridSize="10" guides="1" tooltips="1" connect="1" arrows="1" fold="1" page="0" pageScale="1" pageWidth="827" pageHeight="1169" background="none" math="1" shadow="0">
      <root>
        <mxCell id="X5NqExCQtvZxIxQ7pmgY-0" />
        <mxCell id="1" parent="X5NqExCQtvZxIxQ7pmgY-0" />
        <mxCell id="Gr0Zq-AI6Quabplr0KPa-179" value="Mindmap" style="swimlane;html=1;startSize=20;horizontal=1;containerType=tree;labelBackgroundColor=none;strokeColor=#D4E1F5;strokeWidth=1;fillColor=none;fontFamily=Comic Sans MS;fontSize=9;swimlaneLine=0;dashed=1;collapsible=0;" parent="1" vertex="1">
          <mxGeometry x="-1821" y="-532" width="1943" height="1427" as="geometry" />
        </mxCell>
        <mxCell id="Gr0Zq-AI6Quabplr0KPa-180" value="&lt;div style=&quot;text-align: justify;&quot;&gt;&lt;span style=&quot;font-size: 14px; font-family: &amp;quot;Times New Roman&amp;quot;; background-color: initial;&quot;&gt;main.py&lt;/span&gt;&lt;/div&gt;" style="ellipse;whiteSpace=wrap;html=1;align=center;container=1;recursiveResize=0;treeFolding=1;strokeWidth=2;" parent="Gr0Zq-AI6Quabplr0KPa-179" vertex="1">
          <mxGeometry x="1062" y="764" width="108" height="53" as="geometry" />
        </mxCell>
        <mxCell id="OfI4b3-oSxV3WxUBCmcq-10" value="&lt;div style=&quot;text-align: justify;&quot;&gt;&lt;font face=&quot;Times New Roman&quot;&gt;&lt;span style=&quot;font-size: 14px;&quot;&gt;ai.py&lt;/span&gt;&lt;/font&gt;&lt;/div&gt;" style="ellipse;whiteSpace=wrap;html=1;align=center;container=1;recursiveResize=0;treeFolding=1;strokeWidth=2;" vertex="1" parent="Gr0Zq-AI6Quabplr0KPa-179">
          <mxGeometry x="769" y="764" width="108" height="53" as="geometry" />
        </mxCell>
        <mxCell id="OfI4b3-oSxV3WxUBCmcq-11" value="&lt;div style=&quot;text-align: justify;&quot;&gt;&lt;font face=&quot;Times New Roman&quot;&gt;&lt;span style=&quot;font-size: 14px;&quot;&gt;auth.py&lt;/span&gt;&lt;/font&gt;&lt;/div&gt;" style="ellipse;whiteSpace=wrap;html=1;align=center;container=1;recursiveResize=0;treeFolding=1;strokeWidth=2;" vertex="1" parent="Gr0Zq-AI6Quabplr0KPa-179">
          <mxGeometry x="1062" y="554" width="108" height="53" as="geometry" />
        </mxCell>
        <mxCell id="OfI4b3-oSxV3WxUBCmcq-12" value="&lt;div style=&quot;text-align: justify;&quot;&gt;&lt;font face=&quot;Times New Roman&quot;&gt;&lt;span style=&quot;font-size: 14px;&quot;&gt;database.py&lt;/span&gt;&lt;/font&gt;&lt;/div&gt;" style="ellipse;whiteSpace=wrap;html=1;align=center;container=1;recursiveResize=0;treeFolding=1;strokeWidth=2;" vertex="1" parent="Gr0Zq-AI6Quabplr0KPa-179">
          <mxGeometry x="1364" y="764" width="108" height="53" as="geometry" />
        </mxCell>
        <mxCell id="OfI4b3-oSxV3WxUBCmcq-13" value="&lt;div style=&quot;text-align: justify;&quot;&gt;&lt;font face=&quot;Times New Roman&quot;&gt;&lt;span style=&quot;font-size: 14px;&quot;&gt;game.py&lt;/span&gt;&lt;/font&gt;&lt;/div&gt;" style="ellipse;whiteSpace=wrap;html=1;align=center;container=1;recursiveResize=0;treeFolding=1;strokeWidth=2;" vertex="1" parent="Gr0Zq-AI6Quabplr0KPa-179">
          <mxGeometry x="1062" y="952" width="108" height="53" as="geometry" />
        </mxCell>
        <mxCell id="OfI4b3-oSxV3WxUBCmcq-14" value="&lt;div style=&quot;text-align: justify;&quot;&gt;&lt;span style=&quot;font-size: 14px; font-family: &amp;quot;Times New Roman&amp;quot;; background-color: initial;&quot;&gt;settings.py&lt;/span&gt;&lt;/div&gt;" style="ellipse;whiteSpace=wrap;html=1;align=center;container=1;recursiveResize=0;treeFolding=1;strokeWidth=2;" vertex="1" parent="Gr0Zq-AI6Quabplr0KPa-179">
          <mxGeometry x="830" y="1075" width="108" height="53" as="geometry" />
        </mxCell>
        <mxCell id="OfI4b3-oSxV3WxUBCmcq-16" value="" style="endArrow=classic;html=1;rounded=0;entryX=0.5;entryY=1;entryDx=0;entryDy=0;exitX=0.5;exitY=0;exitDx=0;exitDy=0;" edge="1" parent="Gr0Zq-AI6Quabplr0KPa-179" source="Gr0Zq-AI6Quabplr0KPa-180" target="OfI4b3-oSxV3WxUBCmcq-11">
          <mxGeometry width="50" height="50" relative="1" as="geometry">
            <mxPoint x="1115" y="762" as="sourcePoint" />
            <mxPoint x="1165" y="712" as="targetPoint" />
          </mxGeometry>
        </mxCell>
        <mxCell id="OfI4b3-oSxV3WxUBCmcq-17" value="" style="endArrow=classic;html=1;rounded=0;entryX=0.5;entryY=0;entryDx=0;entryDy=0;exitX=0.5;exitY=1;exitDx=0;exitDy=0;" edge="1" parent="Gr0Zq-AI6Quabplr0KPa-179" source="Gr0Zq-AI6Quabplr0KPa-180" target="OfI4b3-oSxV3WxUBCmcq-13">
          <mxGeometry width="50" height="50" relative="1" as="geometry">
            <mxPoint x="1114" y="818" as="sourcePoint" />
            <mxPoint x="1173" y="814" as="targetPoint" />
          </mxGeometry>
        </mxCell>
        <mxCell id="OfI4b3-oSxV3WxUBCmcq-18" value="" style="endArrow=classic;html=1;rounded=0;exitX=1;exitY=0.5;exitDx=0;exitDy=0;entryX=0;entryY=0.5;entryDx=0;entryDy=0;" edge="1" parent="Gr0Zq-AI6Quabplr0KPa-179" source="Gr0Zq-AI6Quabplr0KPa-180" target="OfI4b3-oSxV3WxUBCmcq-12">
          <mxGeometry width="50" height="50" relative="1" as="geometry">
            <mxPoint x="1207" y="808" as="sourcePoint" />
            <mxPoint x="1257" y="758" as="targetPoint" />
          </mxGeometry>
        </mxCell>
        <mxCell id="OfI4b3-oSxV3WxUBCmcq-19" value="" style="curved=1;endArrow=classic;html=1;rounded=0;exitX=0;exitY=0.5;exitDx=0;exitDy=0;entryX=0.5;entryY=1;entryDx=0;entryDy=0;" edge="1" parent="Gr0Zq-AI6Quabplr0KPa-179" source="OfI4b3-oSxV3WxUBCmcq-13" target="OfI4b3-oSxV3WxUBCmcq-10">
          <mxGeometry width="50" height="50" relative="1" as="geometry">
            <mxPoint x="1007" y="987" as="sourcePoint" />
            <mxPoint x="1057" y="937" as="targetPoint" />
            <Array as="points">
              <mxPoint x="849" y="934" />
            </Array>
          </mxGeometry>
        </mxCell>
        <mxCell id="OfI4b3-oSxV3WxUBCmcq-22" value="" style="curved=1;endArrow=classic;html=1;rounded=0;entryX=0.5;entryY=1;entryDx=0;entryDy=0;exitX=1;exitY=0.5;exitDx=0;exitDy=0;" edge="1" parent="Gr0Zq-AI6Quabplr0KPa-179" source="OfI4b3-oSxV3WxUBCmcq-13" target="OfI4b3-oSxV3WxUBCmcq-12">
          <mxGeometry width="50" height="50" relative="1" as="geometry">
            <mxPoint x="1220" y="899" as="sourcePoint" />
            <mxPoint x="1270" y="849" as="targetPoint" />
            <Array as="points">
              <mxPoint x="1383" y="998" />
            </Array>
          </mxGeometry>
        </mxCell>
        <mxCell id="OfI4b3-oSxV3WxUBCmcq-23" value="" style="curved=1;endArrow=classic;html=1;rounded=0;exitX=0.5;exitY=0;exitDx=0;exitDy=0;entryX=0.5;entryY=0;entryDx=0;entryDy=0;" edge="1" parent="Gr0Zq-AI6Quabplr0KPa-179" source="OfI4b3-oSxV3WxUBCmcq-10" target="OfI4b3-oSxV3WxUBCmcq-12">
          <mxGeometry width="50" height="50" relative="1" as="geometry">
            <mxPoint x="852" y="721" as="sourcePoint" />
            <mxPoint x="1417" y="666" as="targetPoint" />
            <Array as="points">
              <mxPoint x="1137" y="656" />
            </Array>
          </mxGeometry>
        </mxCell>
        <mxCell id="OfI4b3-oSxV3WxUBCmcq-24" value="" style="shape=curlyBracket;whiteSpace=wrap;html=1;rounded=1;flipH=1;labelPosition=right;verticalLabelPosition=middle;align=left;verticalAlign=middle;" vertex="1" parent="Gr0Zq-AI6Quabplr0KPa-179">
          <mxGeometry x="749" y="730.5" width="20" height="120" as="geometry" />
        </mxCell>
        <mxCell id="OfI4b3-oSxV3WxUBCmcq-34" value="&lt;ul&gt;&lt;li&gt;Алгоритм Минимакса&lt;/li&gt;&lt;li&gt;Функция оценки состояния игры&lt;/li&gt;&lt;li&gt;Поиск лучшего хода&lt;/li&gt;&lt;/ul&gt;" style="text;strokeColor=none;fillColor=none;html=1;whiteSpace=wrap;verticalAlign=middle;overflow=hidden;" vertex="1" parent="Gr0Zq-AI6Quabplr0KPa-179">
          <mxGeometry x="626" y="701.75" width="127" height="177.5" as="geometry" />
        </mxCell>
        <mxCell id="OfI4b3-oSxV3WxUBCmcq-36" value="" style="shape=curlyBracket;whiteSpace=wrap;html=1;rounded=1;labelPosition=left;verticalLabelPosition=middle;align=right;verticalAlign=middle;direction=north;" vertex="1" parent="Gr0Zq-AI6Quabplr0KPa-179">
          <mxGeometry x="1042.87" y="510" width="154.13" height="47" as="geometry" />
        </mxCell>
        <mxCell id="OfI4b3-oSxV3WxUBCmcq-37" value="&lt;ul&gt;&lt;li&gt;Регистрация пользователя&lt;/li&gt;&lt;li&gt;Вход в систему&lt;/li&gt;&lt;li&gt;Хеширование паролей&lt;/li&gt;&lt;/ul&gt;" style="text;strokeColor=none;fillColor=none;html=1;whiteSpace=wrap;verticalAlign=middle;overflow=hidden;" vertex="1" parent="Gr0Zq-AI6Quabplr0KPa-179">
          <mxGeometry x="1042.87" y="404" width="158" height="160" as="geometry" />
        </mxCell>
        <mxCell id="OfI4b3-oSxV3WxUBCmcq-38" value="" style="shape=curlyBracket;whiteSpace=wrap;html=1;rounded=1;labelPosition=left;verticalLabelPosition=middle;align=right;verticalAlign=middle;" vertex="1" parent="Gr0Zq-AI6Quabplr0KPa-179">
          <mxGeometry x="1475" y="730.5" width="20" height="120" as="geometry" />
        </mxCell>
        <mxCell id="OfI4b3-oSxV3WxUBCmcq-39" value="&lt;ul&gt;&lt;li&gt;Инициализация базы данных&lt;/li&gt;&lt;li&gt;Сохранение игр&lt;/li&gt;&lt;li&gt;Получение данных пользователя&lt;/li&gt;&lt;li&gt;Обновление игр&lt;/li&gt;&lt;/ul&gt;" style="text;strokeColor=none;fillColor=none;html=1;whiteSpace=wrap;verticalAlign=middle;overflow=hidden;" vertex="1" parent="Gr0Zq-AI6Quabplr0KPa-179">
          <mxGeometry x="1475" y="697" width="169" height="187" as="geometry" />
        </mxCell>
        <mxCell id="OfI4b3-oSxV3WxUBCmcq-42" value="" style="endArrow=classic;html=1;rounded=0;exitX=0.5;exitY=1;exitDx=0;exitDy=0;entryX=1;entryY=0.5;entryDx=0;entryDy=0;" edge="1" parent="Gr0Zq-AI6Quabplr0KPa-179" source="OfI4b3-oSxV3WxUBCmcq-13" target="OfI4b3-oSxV3WxUBCmcq-14">
          <mxGeometry width="50" height="50" relative="1" as="geometry">
            <mxPoint x="1012" y="1068" as="sourcePoint" />
            <mxPoint x="1062" y="1018" as="targetPoint" />
          </mxGeometry>
        </mxCell>
        <mxCell id="OfI4b3-oSxV3WxUBCmcq-49" value="" style="shape=curlyBracket;whiteSpace=wrap;html=1;rounded=1;labelPosition=left;verticalLabelPosition=middle;align=right;verticalAlign=middle;" vertex="1" parent="Gr0Zq-AI6Quabplr0KPa-179">
          <mxGeometry x="1200.87" y="998" width="20" height="120" as="geometry" />
        </mxCell>
        <mxCell id="OfI4b3-oSxV3WxUBCmcq-55" value="" style="edgeStyle=elbowEdgeStyle;elbow=horizontal;endArrow=classic;html=1;curved=0;rounded=0;endSize=8;startSize=8;exitX=1;exitY=0.5;exitDx=0;exitDy=0;" edge="1" parent="Gr0Zq-AI6Quabplr0KPa-179" source="OfI4b3-oSxV3WxUBCmcq-13">
          <mxGeometry width="50" height="50" relative="1" as="geometry">
            <mxPoint x="1150.87" y="1108" as="sourcePoint" />
            <mxPoint x="1200.87" y="1058" as="targetPoint" />
          </mxGeometry>
        </mxCell>
        <mxCell id="OfI4b3-oSxV3WxUBCmcq-56" value="&lt;ul&gt;&lt;li&gt;Логика игры&lt;/li&gt;&lt;li&gt;Визуализация доски&lt;/li&gt;&lt;li&gt;Обработка ходов&lt;/li&gt;&lt;li&gt;Проверка состояния игры(шах, мат, пат)&lt;/li&gt;&lt;/ul&gt;" style="text;strokeColor=none;fillColor=none;html=1;whiteSpace=wrap;verticalAlign=middle;overflow=hidden;" vertex="1" parent="Gr0Zq-AI6Quabplr0KPa-179">
          <mxGeometry x="1197" y="986" width="177.13" height="144" as="geometry" />
        </mxCell>
        <mxCell id="OfI4b3-oSxV3WxUBCmcq-57" value="" style="shape=curlyBracket;whiteSpace=wrap;html=1;rounded=1;labelPosition=left;verticalLabelPosition=middle;align=right;verticalAlign=middle;" vertex="1" parent="Gr0Zq-AI6Quabplr0KPa-179">
          <mxGeometry x="1225" y="810" width="20" height="120" as="geometry" />
        </mxCell>
        <mxCell id="OfI4b3-oSxV3WxUBCmcq-59" value="" style="edgeStyle=elbowEdgeStyle;elbow=vertical;endArrow=classic;html=1;curved=0;rounded=0;endSize=8;startSize=8;entryX=0.1;entryY=0.5;entryDx=0;entryDy=0;entryPerimeter=0;exitX=0.5;exitY=1;exitDx=0;exitDy=0;" edge="1" parent="Gr0Zq-AI6Quabplr0KPa-179" source="Gr0Zq-AI6Quabplr0KPa-180" target="OfI4b3-oSxV3WxUBCmcq-57">
          <mxGeometry width="50" height="50" relative="1" as="geometry">
            <mxPoint x="1127" y="900" as="sourcePoint" />
            <mxPoint x="1177" y="850" as="targetPoint" />
          </mxGeometry>
        </mxCell>
        <mxCell id="OfI4b3-oSxV3WxUBCmcq-60" value="&lt;ul&gt;&lt;li&gt;Точка входа в приложение&lt;/li&gt;&lt;li&gt;Управление интерфейсом&lt;/li&gt;&lt;li&gt;Выбор режима игры&lt;/li&gt;&lt;li&gt;Запуск игры&lt;/li&gt;&lt;/ul&gt;" style="text;strokeColor=none;fillColor=none;html=1;whiteSpace=wrap;verticalAlign=middle;overflow=hidden;" vertex="1" parent="Gr0Zq-AI6Quabplr0KPa-179">
          <mxGeometry x="1213.57" y="796.5" width="144" height="147" as="geometry" />
        </mxCell>
        <mxCell id="OfI4b3-oSxV3WxUBCmcq-61" value="" style="shape=curlyBracket;whiteSpace=wrap;html=1;rounded=1;flipH=1;labelPosition=right;verticalLabelPosition=middle;align=left;verticalAlign=middle;" vertex="1" parent="Gr0Zq-AI6Quabplr0KPa-179">
          <mxGeometry x="810" y="1041.5" width="20" height="120" as="geometry" />
        </mxCell>
        <mxCell id="OfI4b3-oSxV3WxUBCmcq-62" value="&lt;ul&gt;&lt;li&gt;Настройки игры (цвета, размеры, глубина поиска ИИ&lt;/li&gt;&lt;li&gt;Путь к папке с изображениями&amp;nbsp;&lt;/li&gt;&lt;/ul&gt;" style="text;strokeColor=none;fillColor=none;html=1;whiteSpace=wrap;verticalAlign=middle;overflow=hidden;" vertex="1" parent="Gr0Zq-AI6Quabplr0KPa-179">
          <mxGeometry x="667" y="1019.5" width="163" height="164" as="geometry" />
        </mxCell>
      </root>
    </mxGraphModel>
  </diagram>
</mxfile>
